HIERARCHY
ROOT Hips
{
	OFFSET 0.000000 89.005402 0.000000
	CHANNELS 6 Xposition Yposition Zposition Xrotation Yrotation Zrotation
	JOINT Spine
	{
		OFFSET 0.116900 10.681000 0.373400
		CHANNELS 3 Xrotation Yrotation Zrotation
		JOINT Spine1
		{
			OFFSET 0.000000 13.840401 0.053500
			CHANNELS 3 Xrotation Yrotation Zrotation
			JOINT Spine2
			{
				OFFSET 0.000000 14.712700 -0.366200
				CHANNELS 3 Xrotation Yrotation Zrotation
				JOINT Neck
				{
					OFFSET 0.000000 35.415497 -3.314200
					CHANNELS 3 Xrotation Yrotation Zrotation
					JOINT Head
					{
						OFFSET 0.000000 16.899200 1.218300
						CHANNELS 3 Xrotation Yrotation Zrotation
						JOINT HeadTop_End
						{
							OFFSET 0.000000 22.206207 2.192500
							CHANNELS 3 Xrotation Yrotation Zrotation
							End Site
							{
								OFFSET 0.000000 22.314178 0.000000
							}
						}
					}
				}
				JOINT LeftShoulder
				{
					OFFSET 12.896400 26.716293 -4.548400
					CHANNELS 3 Xrotation Yrotation Zrotation
					JOINT LeftArm
					{
						OFFSET 19.027000 -4.857010 -1.718400
						CHANNELS 3 Xrotation Yrotation Zrotation
						JOINT LeftForeArm
						{
							OFFSET 24.179897 0.000000 0.000000
							CHANNELS 3 Xrotation Yrotation Zrotation
							JOINT LeftHand
							{
								OFFSET 27.156403 0.000000 0.000000
								CHANNELS 3 Xrotation Yrotation Zrotation
								JOINT LeftHandIndex1
								{
									OFFSET 16.441200 0.000000 0.000000
									CHANNELS 3 Xrotation Yrotation Zrotation
									JOINT LeftHandIndex2
									{
										OFFSET 4.821899 0.000000 0.000000
										CHANNELS 3 Xrotation Yrotation Zrotation
										JOINT LeftHandIndex3
										{
											OFFSET 6.386497 0.000000 0.000000
											CHANNELS 3 Xrotation Yrotation Zrotation
											JOINT LeftHandIndex4
											{
												OFFSET 5.188988 0.000000 0.000000
												CHANNELS 3 Xrotation Yrotation Zrotation
												End Site
												{
													OFFSET -0.178703 5.185913 0.000177
												}
											}
										}
									}
								}
								JOINT LeftHandThumb1
								{
									OFFSET 6.534897 -5.032593 5.900300
									CHANNELS 3 Xrotation Yrotation Zrotation
									JOINT LeftHandThumb2
									{
										OFFSET 3.818176 -2.204422 2.204423
										CHANNELS 3 Xrotation Yrotation Zrotation
										JOINT LeftHandThumb3
										{
											OFFSET 3.252098 -1.877594 1.877601
											CHANNELS 3 Xrotation Yrotation Zrotation
											JOINT LeftHandThumb4
											{
												OFFSET 5.251778 -3.032120 3.032117
												CHANNELS 3 Xrotation Yrotation Zrotation
												End Site
												{
													OFFSET 0.000023 6.780014 0.000000
												}
											}
										}
									}
								}
							}
						}
					}
				}
				JOINT RightShoulder
				{
					OFFSET -12.896300 26.716293 -4.548400
					CHANNELS 3 Xrotation Yrotation Zrotation
					JOINT RightArm
					{
						OFFSET -19.027000 -4.857010 -1.718400
						CHANNELS 3 Xrotation Yrotation Zrotation
						JOINT RightForeArm
						{
							OFFSET -24.179897 0.000000 0.000000
							CHANNELS 3 Xrotation Yrotation Zrotation
							JOINT RightHand
							{
								OFFSET -27.156403 0.000000 0.000000
								CHANNELS 3 Xrotation Yrotation Zrotation
								JOINT RightHandThumb1
								{
									OFFSET -6.591202 -4.852203 5.988100
									CHANNELS 3 Xrotation Yrotation Zrotation
									JOINT RightHandThumb2
									{
										OFFSET -3.818176 -2.204422 2.204423
										CHANNELS 3 Xrotation Yrotation Zrotation
										JOINT RightHandThumb3
										{
											OFFSET -3.252098 -1.877594 1.877601
											CHANNELS 3 Xrotation Yrotation Zrotation
											JOINT RightHandThumb4
											{
												OFFSET -5.251778 -3.032120 3.032117
												CHANNELS 3 Xrotation Yrotation Zrotation
												End Site
												{
													OFFSET -0.000023 6.780014 0.000000
												}
											}
										}
									}
								}
								JOINT RightHandIndex1
								{
									OFFSET -16.029404 0.000000 0.000000
									CHANNELS 3 Xrotation Yrotation Zrotation
									JOINT RightHandIndex2
									{
										OFFSET -5.213303 0.000000 0.000000
										CHANNELS 3 Xrotation Yrotation Zrotation
										JOINT RightHandIndex3
										{
											OFFSET -6.386528 0.000000 0.000000
											CHANNELS 3 Xrotation Yrotation Zrotation
											JOINT RightHandIndex4
											{
												OFFSET -5.189026 0.000000 0.000000
												CHANNELS 3 Xrotation Yrotation Zrotation
												End Site
												{
													OFFSET 0.236702 5.183624 0.001972
												}
											}
										}
									}
								}
							}
						}
					}
				}
			}
		}
	}
	JOINT LeftUpLeg
	{
		OFFSET 14.073000 -7.904099 -1.463000
		CHANNELS 3 Xrotation Yrotation Zrotation
		JOINT LeftLeg
		{
			OFFSET -0.109806 -34.073280 4.093200
			CHANNELS 3 Xrotation Yrotation Zrotation
			JOINT LeftFoot
			{
				OFFSET 0.109806 -29.899420 -6.319000
				CHANNELS 3 Xrotation Yrotation Zrotation
				JOINT LeftToeBase
				{
					OFFSET 1.551100 -14.988700 20.535801
					CHANNELS 3 Xrotation Yrotation Zrotation
					JOINT LeftToe_End
					{
						OFFSET 0.221200 0.570800 13.248301
						CHANNELS 3 Xrotation Yrotation Zrotation
						End Site
						{
							OFFSET 0.000000 13.262435 0.000000
						}
					}
				}
			}
		}
	}
	JOINT RightUpLeg
	{
		OFFSET -13.839300 -7.904099 -1.463000
		CHANNELS 3 Xrotation Yrotation Zrotation
		JOINT RightLeg
		{
			OFFSET 0.109694 -34.073219 4.093300
			CHANNELS 3 Xrotation Yrotation Zrotation
			JOINT RightFoot
			{
				OFFSET -0.109694 -29.899384 -6.319200
				CHANNELS 3 Xrotation Yrotation Zrotation
				JOINT RightToeBase
				{
					OFFSET -1.551100 -14.988700 20.535801
					CHANNELS 3 Xrotation Yrotation Zrotation
					JOINT RightToe_End
					{
						OFFSET -0.221200 0.570900 13.248299
						CHANNELS 3 Xrotation Yrotation Zrotation
						End Site
						{
							OFFSET 0.000000 13.262440 0.000000
						}
					}
				}
			}
		}
	}
}
MOTION
Frames: 7
Frame Time: 0.033333
0.298587 51.417618 7.570711 -13.268540 0.174725 0.339028 6.750353 0.141475 -1.257635 -7.632789 -0.465932 0.323466 -7.635292 -0.404931 0.360842 7.478172 -1.425262 3.746013 -4.279519 -4.297965 0.725055 -0.000000 -0.000000 0.000000 0.540346 -6.513182 -4.111596 -18.267587 -40.625019 -17.920620 0.000009 -124.689871 0.000003 -8.701961 -4.550726 28.532535 0.068140 0.075889 -0.215210 0.839294 3.023323 -31.023798 0.004947 -0.240986 2.352298 -0.000001 -0.000000 -0.000000 16.451259 -0.684538 -3.503594 0.201831 11.941032 -27.417747 -10.289893 22.825333 8.725883 0.000001 -0.000004 -0.000000 1.274573 7.758203 1.789310 -24.754381 27.901922 39.623696 0.000024 135.210985 -0.000022 17.754920 -13.540896 -25.676394 -1.190035 7.725389 13.619856 2.060665 -23.141361 17.342462 -9.690839 -24.273987 -9.794398 -0.000002 0.000002 -0.000001 2.446912 2.153551 1.702874 0.603069 -2.293959 29.455228 0.000916 0.092903 -1.140609 0.000000 -0.000002 -0.000004 -74.853676 -5.996249 16.149924 82.043665 1.055961 -0.471961 7.312190 -6.656317 -5.777789 -0.103103 0.000003 0.000003 -0.000000 0.000000 0.000000 -75.135537 7.396180 -12.126695 82.229877 -1.318441 -1.114604 7.923457 -0.278004 7.992727 -0.191616 0.000006 0.000001 -0.000000 0.000000 0.000000 
0.339676 51.514229 7.418888 -13.826980 0.125329 0.388501 6.735268 0.107917 -1.251307 -7.622670 -0.574249 0.276013 -7.625370 -0.513945 0.305837 6.306548 -1.378965 3.771053 -7.347983 -3.959891 0.294550 0.000002 0.000000 -0.000000 0.440706 -5.405271 -3.188313 -21.875271 -41.682640 -18.307280 0.000001 -122.785969 0.000001 -9.602109 -6.949643 27.759984 0.067938 0.075951 -0.222168 0.839240 3.023227 -31.022726 0.004917 -0.240411 2.346685 -0.000001 -0.000000 -0.000002 16.449157 -0.683031 -3.493728 0.204405 11.940221 -27.416472 -10.288900 22.828878 8.731877 -0.000000 0.000001 0.000003 1.136027 8.822887 0.156644 -28.675900 25.694844 40.579619 0.000016 134.841581 -0.000026 17.569610 -12.971554 -22.485531 -1.186407 7.716767 13.615694 2.062657 -23.141331 17.349241 -9.690364 -24.275761 -9.797388 -0.000003 0.000001 0.000001 2.446433 2.153435 1.703223 0.603069 -2.293960 29.455163 0.000909 0.092752 -1.138662 -0.000000 -0.000000 0.000001 -74.152686 -5.792534 16.144308 81.801009 1.104380 -0.467522 7.391424 -6.658753 -5.662184 -0.103103 0.000003 0.000003 -0.000000 0.000000 0.000000 -74.473227 7.299791 -12.225457 81.940209 -1.202644 -1.123760 8.077877 -0.272158 7.882009 -0.191616 0.000006 0.000001 0.000000 0.000001 0.000000 
0.374638 51.497002 7.277552 -14.221707 0.133205 0.486220 6.833845 0.110387 -1.222874 -7.390619 -0.605283 0.300053 -7.393525 -0.546083 0.327775 5.359278 -1.292368 3.541919 -10.853567 -3.691805 -0.155124 0.000003 0.000000 0.000000 0.419351 -5.291737 -2.772321 -25.144173 -41.540213 -18.215001 -0.000006 -122.050276 -0.000003 -10.425491 -8.229851 26.492700 0.067501 0.076484 -0.233622 0.839100 3.023001 -31.020110 0.004893 -0.239588 2.338635 -0.000002 -0.000000 -0.000000 16.444536 -0.681114 -3.479703 0.210073 11.939180 -27.416608 -10.289192 22.834673 8.741381 0.000000 0.000000 0.000000 1.036984 9.547963 -1.506859 -32.279436 23.867773 41.352667 0.000024 134.743226 -0.000015 17.515083 -11.919717 -20.238231 -1.195931 7.713008 13.601371 2.065775 -23.141603 17.360331 -9.689874 -24.280177 -9.800955 -0.000000 0.000000 0.000001 2.445793 2.153439 1.703740 0.603047 -2.293946 29.454911 0.000928 0.092444 -1.134836 -0.000001 0.000003 0.000001 -73.791192 -5.615474 16.047881 81.659693 1.164750 -0.466526 7.547001 -6.660734 -5.573270 -0.103103 0.000004 0.000003 -0.000000 0.000001 0.000000 -74.152106 7.322971 -12.365189 81.837489 -1.094052 -1.127604 8.237081 -0.268033 7.814267 -0.191616 0.000006 0.000001 0.000000 0.000000 -0.000000 
0.394996 51.419876 7.179256 -14.431085 0.181826 0.554995 6.973566 0.133877 -1.186496 -7.076835 -0.580333 0.380507 -7.080016 -0.522245 0.410023 4.803750 -1.225746 3.206205 -13.716016 -3.623125 -0.518316 -0.000000 0.000000 0.000000 0.452995 -5.970384 -2.544839 -27.173872 -40.386519 -17.587703 0.000002 -122.180295 -0.000002 -10.760919 -8.632777 25.323913 0.066597 0.077809 -0.252140 0.838808 3.022512 -31.014499 0.004846 -0.238301 2.326062 -0.000000 0.000001 -0.000000 16.435218 -0.679333 -3.458340 0.222348 11.938510 -27.420069 -10.292139 22.844363 8.757885 0.000003 -0.000002 0.000003 0.971373 9.867894 -2.996740 -35.152508 22.386563 42.034125 0.000042 134.641538 -0.000040 17.063896 -10.229973 -18.574257 -1.219452 7.710556 13.573069 2.070850 -23.142277 17.378417 -9.688817 -24.288776 -9.805393 0.000001 0.000000 -0.000000 2.444924 2.153925 1.705267 0.603005 -2.293870 29.453780 0.000903 0.091810 -1.127165 0.000001 -0.000001 -0.000002 -73.722876 -5.523767 15.952001 81.623131 1.183824 -0.466869 7.708886 -6.662089 -5.505153 -0.103103 0.000004 0.000003 -0.000000 -0.000000 0.000000 -74.083360 7.386897 -12.472894 81.858998 -1.037575 -1.125846 8.360979 -0.266500 7.808375 -0.191616 0.000005 0.000001 -0.000000 -0.000001 -0.000000 
0.403169 51.385353 7.117722 -14.623992 0.231984 0.566412 7.115055 0.166033 -1.149483 -6.758576 -0.535848 0.473874 -6.761969 -0.478430 0.506902 4.670403 -1.196607 2.950248 -15.348571 -3.677297 -0.778091 0.000002 -0.000000 0.000000 0.506333 -6.937423 -2.389001 -27.505874 -38.793675 -16.795003 0.000024 -122.300739 0.000019 -10.537041 -8.834704 25.085331 0.064947 0.079749 -0.276067 0.838385 3.021822 -31.006583 0.004777 -0.236635 2.309797 0.000000 -0.000001 -0.000001 16.422389 -0.678465 -3.430923 0.239764 11.938473 -27.425820 -10.297272 22.857180 8.779761 -0.000002 -0.000001 0.000001 0.929819 9.882100 -4.122041 -37.006139 21.155249 42.645758 0.000024 134.418942 -0.000018 16.163264 -8.380003 -17.540850 -1.256064 7.708336 13.532013 2.077452 -23.143182 17.401842 -9.686974 -24.300497 -9.810592 -0.000002 -0.000002 0.000001 2.443814 2.155141 1.708201 0.602914 -2.293712 29.451605 0.000901 0.090917 -1.116069 -0.000001 -0.000003 -0.000002 -73.616646 -5.476336 15.924934 81.596998 1.147330 -0.465214 7.804625 -6.662717 -5.434730 -0.103103 0.000003 0.000003 -0.000000 0.000000 0.000000 -73.938205 7.391781 -12.528153 81.861839 -1.029945 -1.124027 8.412476 -0.265545 7.811129 -0.191616 0.000005 0.000001 -0.000000 0.000001 0.000000 
0.398630 51.419907 7.077335 -14.828312 0.244666 0.582309 7.254433 0.195878 -1.129162 -6.445070 -0.490377 0.523381 -6.448393 -0.433022 0.560867 4.740932 -1.189552 2.829246 -15.875479 -3.699730 -1.019698 0.000002 0.000000 0.000000 0.563965 -7.883981 -2.340099 -26.126505 -37.110450 -16.221669 -0.000009 -121.672689 0.000006 -10.178386 -9.330446 25.564947 0.062686 0.081039 -0.295305 0.838046 3.021248 -31.000111 0.004715 -0.235304 2.296789 0.000001 0.000000 -0.000001 16.412613 -0.679370 -3.408615 0.253451 11.938392 -27.428834 -10.301109 22.867395 8.796845 -0.000001 -0.000001 -0.000000 0.906108 9.697607 -4.833397 -37.741774 20.241573 43.106867 0.000002 134.113893 -0.000001 15.350287 -6.946944 -17.494112 -1.300279 7.711178 13.490357 2.082687 -23.143541 17.420648 -9.685544 -24.309514 -9.815781 -0.000000 0.000001 -0.000002 2.442574 2.156877 1.711122 0.602850 -2.293566 29.449737 0.000864 0.090155 -1.106841 -0.000000 -0.000002 -0.000002 -73.364537 -5.409903 15.929087 81.510945 1.128836 -0.462275 7.831042 -6.663411 -5.393382 -0.103103 0.000003 0.000003 0.000000 -0.000001 0.000000 -73.686745 7.353154 -12.562646 81.800968 -1.020973 -1.125418 8.418321 -0.264263 7.773326 -0.191616 0.000006 0.000001 -0.000000 -0.000000 -0.000000 
0.382476 51.487534 7.054560 -14.943364 0.216894 0.653745 7.395698 0.216103 -1.140342 -6.128047 -0.439424 0.508923 -6.130973 -0.381830 0.552116 4.794904 -1.186066 2.785052 -15.826766 -3.639766 -1.268974 0.000002 0.000000 -0.000000 0.631457 -8.918240 -2.402390 -23.429277 -35.302960 -15.900079 0.000051 -120.191071 0.000046 -10.064609 -10.065696 25.402191 0.059965 0.081276 -0.309128 0.837804 3.020845 -30.995480 0.004680 -0.234363 2.287609 -0.000001 -0.000000 0.000001 16.406353 -0.681512 -3.392348 0.263179 11.938176 -27.430829 -10.303910 22.874679 8.809009 0.000000 0.000001 0.000001 0.893170 9.382949 -5.238699 -37.592313 19.722113 43.264392 -0.000017 133.807203 0.000011 15.215355 -6.211740 -18.185435 -1.350780 7.719749 13.449083 2.086391 -23.143235 17.434107 -9.684328 -24.315291 -9.820643 -0.000001 0.000001 0.000001 2.441057 2.159001 1.713760 0.602789 -2.293449 29.448135 0.000859 0.089621 -1.100301 -0.000001 -0.000000 0.000001 -73.100106 -5.322131 15.913137 81.372094 1.167415 -0.460474 7.822056 -6.664173 -5.416701 -0.103103 0.000004 0.000003 -0.000000 -0.000000 0.000000 -73.510061 7.333739 -12.600106 81.716363 -0.981218 -1.128889 8.420924 -0.262815 7.699129 -0.191616 0.000005 0.000001 -0.000000 -0.000001 0.000000 
